<?xml version="1.0" encoding="utf-8"?>
<!-- Generator: Adobe Illustrator 15.1.0, SVG Export Plug-In . SVG Version: 6.00 Build 0)  -->
<!DOCTYPE svg PUBLIC "-//W3C//DTD SVG 1.1//EN" "http://www.w3.org/Graphics/SVG/1.1/DTD/svg11.dtd">
<svg version="1.1" xmlns="http://www.w3.org/2000/svg" xmlns:xlink="http://www.w3.org/1999/xlink" x="0px" y="0px" width="400px"
	 height="400px" viewBox="0 0 400 400" enable-background="new 0 0 400 400" xml:space="preserve">
<g id="Layer_1" display="none">
	<g display="inline">
		<g>
			<path d="M318.271,78.729c-55.242-48.142-140.941-31.929-195.207,9.151c-26.958,20.408-48.907,49.02-55.616,82.687
				c-6.79,34.076,3.835,73.107,29.325,97.173c27.717,26.166,68.568,35.394,105.616,35.912c36.134,0.506,79.643-7.146,106.271-33.68
				c25.015-24.926,30.062-66.432,25.749-99.939c-5.055-39.275-31.175-71.142-57.484-98.959c-2.458-2.599-6.022,1.186-3.85,3.851
				c16.652,20.423,34.077,40.391,45.284,64.496c10.929,23.504,12.383,50.224,8.52,75.586c-3.639,23.884-14.384,46.735-35.191,60.162
				c-15.069,9.725-32.633,15.212-50.136,18.525c-38.134,7.218-80.951,3.757-115.855-13.953
				c-16.085-8.161-30.206-20.046-39.279-35.776c-9.065-15.718-13.79-34.36-13.861-52.451
				C72.27,118.765,146.87,67.543,212.233,57.873c35.666-5.277,73.293,2.155,101.496,25.398
				C316.879,85.866,321.422,81.476,318.271,78.729L318.271,78.729z"/>
		</g>
	</g>
	<g display="inline">
		<g>
			<path fill="#F05029" d="M301.941,149.281c-12.5-17.999-37.077-22.525-57.423-24.581c-23.921-2.416-46.489-0.04-68.071,11.119
				c-21.42,11.076-38.613,28.938-53.086,47.895c-13.408,17.562-22.296,37.827-22.862,60.165
				c-0.538,21.258,8.05,41.629,23.311,56.338c16.142,15.559,38.377,23.815,60.36,26.189c43.053,4.648,90.466-15.223,116.007-50.446
				c1.528-2.106,2.939-4.295,4.309-6.507c1.989-3.216-2.844-5.855-4.973-2.906c-26.314,36.471-73.46,57.754-118.266,51.709
				c-22.389-3.021-45.176-13.604-59.14-31.82c-13.212-17.236-16.034-39.592-11.055-60.335c4.534-18.889,15.746-34.599,28.244-49.083
				c13.286-15.398,29.043-28.692,47.668-37.115c18.76-8.483,38.667-9.023,58.816-7.129c17.968,1.688,38.851,5.895,50.81,20.635
				C299.027,156.411,304.139,152.445,301.941,149.281L301.941,149.281z"/>
		</g>
	</g>
</g>
<g id="Layer_2">
	<g>
		<g>
			<path fill="#F05029" d="M386.196,102.795c-6.485-17.08-19.488-30.299-33.734-41.258c-16.965-13.051-36.495-22.704-56.433-30.287
				c-19.199-7.302-39.317-12.497-59.749-14.744c-18.062-1.987-35.317,0.422-52.537,6.099
				c-41.37,13.638-78.151,41.377-108.346,72.186C45.743,125.047,19.14,162.288,8.695,203.906
				c-8.768,34.935-2.611,73.104,18.563,102.427c20.755,28.742,52.773,47.091,85.655,58.697
				c34.87,12.309,72.565,17.419,109.462,16.659c39.117-0.806,78.784-9.682,113.073-28.934c18.755-10.53,35.41-25.003,46.575-43.526
				c11.939-19.808,14.944-43.383,15.446-66.11c1.111-50.352-13.834-101.487-38.279-145.228
				c-9.121-16.322-20.051-31.675-32.93-45.247c-2.406-2.536-6.033,1.205-3.795,3.795c33.223,38.46,54.588,86.768,63.633,136.594
				c4.471,24.629,5.579,50.221,1.882,75.025c-3.399,22.807-13.162,42.45-29.863,58.436c-29.749,28.475-73.764,42.018-113.965,46.036
				c-36.3,3.63-73.548,0.413-108.806-8.833c-34.384-9.018-68.481-24.765-92.97-51.169c-24.607-26.533-34.18-63.388-27.83-98.827
				c7.545-42.108,34.606-79.997,63.442-110.411c29.977-31.617,67.167-59.831,108.906-73.639c15.9-5.26,31.633-7.219,48.292-5.624
				c19.237,1.842,38.239,7.033,56.359,13.606c19.155,6.949,37.72,16.077,54.37,27.867c13.972,9.894,27.555,22.802,33.899,39.054
				C381.346,108.474,387.718,106.804,386.196,102.795L386.196,102.795z"/>
		</g>
	</g>
</g>
</svg>
