<?xml version="1.0" encoding="utf-8"?>
<!-- Generator: Adobe Illustrator 15.1.0, SVG Export Plug-In . SVG Version: 6.00 Build 0)  -->
<!DOCTYPE svg PUBLIC "-//W3C//DTD SVG 1.1//EN" "http://www.w3.org/Graphics/SVG/1.1/DTD/svg11.dtd">
<svg version="1.1" xmlns="http://www.w3.org/2000/svg" xmlns:xlink="http://www.w3.org/1999/xlink" x="0px" y="0px" width="400px"
	 height="400px" viewBox="0 0 400 400" enable-background="new 0 0 400 400" xml:space="preserve">
<g id="Layer_1" display="none">
	<g display="inline">
		<g>
			<path d="M318.271,78.729c-55.242-48.142-140.941-31.929-195.207,9.151c-26.958,20.408-48.907,49.02-55.616,82.687
				c-6.79,34.076,3.835,73.107,29.325,97.173c27.717,26.166,68.568,35.394,105.616,35.912c36.134,0.506,79.643-7.146,106.271-33.68
				c25.015-24.926,30.062-66.432,25.749-99.939c-5.055-39.275-31.175-71.142-57.484-98.959c-2.458-2.599-6.022,1.186-3.85,3.851
				c16.652,20.423,34.077,40.391,45.284,64.496c10.929,23.504,12.383,50.224,8.52,75.586c-3.639,23.884-14.384,46.735-35.191,60.162
				c-15.069,9.725-32.633,15.212-50.136,18.525c-38.134,7.218-80.951,3.757-115.855-13.953
				c-16.085-8.161-30.206-20.046-39.279-35.776c-9.065-15.718-13.79-34.36-13.861-52.451
				C72.27,118.765,146.87,67.543,212.233,57.873c35.666-5.277,73.293,2.155,101.496,25.398
				C316.879,85.866,321.422,81.476,318.271,78.729L318.271,78.729z"/>
		</g>
	</g>
	<g display="inline">
		<g>
			<path fill="#F05029" d="M301.941,149.281c-12.5-17.999-37.077-22.525-57.423-24.581c-23.921-2.416-46.489-0.04-68.071,11.119
				c-21.42,11.076-38.613,28.938-53.086,47.895c-13.408,17.562-22.296,37.827-22.862,60.165
				c-0.538,21.258,8.05,41.629,23.311,56.338c16.142,15.559,38.377,23.815,60.36,26.189c43.053,4.648,90.466-15.223,116.007-50.446
				c1.528-2.106,2.939-4.295,4.309-6.507c1.989-3.216-2.844-5.855-4.973-2.906c-26.314,36.471-73.46,57.754-118.266,51.709
				c-22.389-3.021-45.176-13.604-59.14-31.82c-13.212-17.236-16.034-39.592-11.055-60.335c4.534-18.889,15.746-34.599,28.244-49.083
				c13.286-15.398,29.043-28.692,47.668-37.115c18.76-8.483,38.667-9.023,58.816-7.129c17.968,1.688,38.851,5.895,50.81,20.635
				C299.027,156.411,304.139,152.445,301.941,149.281L301.941,149.281z"/>
		</g>
	</g>
</g>
<g id="Layer_2" display="none">
	<g display="inline">
		<g>
			<path fill="#F05029" d="M386.196,102.795c-6.485-17.08-19.488-30.299-33.734-41.258c-16.965-13.051-36.495-22.704-56.433-30.287
				c-19.199-7.302-39.317-12.497-59.749-14.744c-18.062-1.987-35.317,0.422-52.537,6.099
				c-41.37,13.638-78.151,41.377-108.346,72.186C45.743,125.047,19.14,162.288,8.695,203.906
				c-8.768,34.935-2.611,73.104,18.563,102.427c20.755,28.742,52.773,47.091,85.655,58.697
				c34.87,12.309,72.565,17.419,109.462,16.659c39.117-0.806,78.784-9.682,113.073-28.934c18.755-10.53,35.41-25.003,46.575-43.526
				c11.939-19.808,14.944-43.383,15.446-66.11c1.111-50.352-13.834-101.487-38.279-145.228
				c-9.121-16.322-20.051-31.675-32.93-45.247c-2.406-2.536-6.033,1.205-3.795,3.795c33.223,38.46,54.588,86.768,63.633,136.594
				c4.471,24.629,5.579,50.221,1.882,75.025c-3.399,22.807-13.162,42.45-29.863,58.436c-29.749,28.475-73.764,42.018-113.965,46.036
				c-36.3,3.63-73.548,0.413-108.806-8.833c-34.384-9.018-68.481-24.765-92.97-51.169c-24.607-26.533-34.18-63.388-27.83-98.827
				c7.545-42.108,34.606-79.997,63.442-110.411c29.977-31.617,67.167-59.831,108.906-73.639c15.9-5.26,31.633-7.219,48.292-5.624
				c19.237,1.842,38.239,7.033,56.359,13.606c19.155,6.949,37.72,16.077,54.37,27.867c13.972,9.894,27.555,22.802,33.899,39.054
				C381.346,108.474,387.718,106.804,386.196,102.795L386.196,102.795z"/>
		</g>
	</g>
</g>
<g id="Layer_3" display="none">
	<g display="inline">
		<g>
			<path fill="#F05029" d="M395.079,148.32c3.961-39.033-32.448-65.425-63.403-80.648c-33.41-16.431-71.525-27.885-108.971-27.321
				c-42.856,0.646-85.286,15.32-121.295,38.125c-35.815,22.683-66.668,55.155-83.245,94.518
				c-14.324,34.015-18.018,73.41-0.347,106.87c15.839,29.992,45.819,49.726,76.545,62.005
				c33.471,13.377,70.648,18.734,106.568,16.991c16.612-0.806,33.263-3.324,49.199-8.136c21.49-6.489,41.275-18.233,58.076-33.018
				c17.537-15.431,31.476-34.985,40.715-56.405c8.888-20.603,12.432-42.315,12.798-64.639c0.352-21.473-1.634-43.189-6.671-64.085
				c-4.688-19.449-12.946-40.587-28.375-54.075c-2.253-1.97-4.727-3.583-7.114-5.363c-3.182-2.374-6.242,2.968-3.104,5.309
				c7.844,5.851,13.967,15.065,18.645,23.498c5.223,9.415,8.705,19.844,11.447,30.219c5.538,20.951,7.295,42.885,7.031,64.499
				c-0.279,22.796-4.311,44.933-13.903,65.728c-9.945,21.56-25.102,40.36-43.538,55.242c-30.755,24.827-69.167,33.801-107.96,33.914
				c-36.063,0.105-72.949-7.214-105.407-23.181c-29.437-14.48-56.089-37.944-65.294-70.424
				c-10.755-37.95,3.62-79.805,24.874-111.388c24.196-35.954,60.999-63.438,100.723-80.085
				c38.905-16.304,81.657-22.161,123.013-12.84c27.25,6.142,54.276,15.975,78.29,30.334c23.152,13.846,46.561,34.963,44.398,64.357
				C388.474,152.411,394.676,152.299,395.079,148.32L395.079,148.32z"/>
		</g>
	</g>
</g>
<g id="Layer_4" display="none">
	<g display="inline">
		<g>
			<path fill="#F05029" d="M185.741,8.843C120.747,13.726,67.146,56.439,35.625,111.761C5.449,164.724-6.771,232.418,14.254,290.826
				c10.224,28.403,28.71,52.854,53.345,70.301c29.298,20.749,65.052,29.837,100.593,30.471c40.9,0.729,82.126-8.776,119.199-25.84
				c35.993-16.566,69.171-42.107,89.355-76.693c10.785-18.479,17.053-39.38,18.142-60.742c1.402-27.498-6.476-54.94-18.439-79.456
				c-11.255-23.062-27.066-44.108-47.391-59.913c-17.553-13.65-38.143-22.715-59.698-27.894c-21.626-5.195-44.026-6.61-66.184-7.446
				c-3.633-0.137-3.571,5.363,0,5.602c46.675,3.113,94.331,10.806,130.078,43.487c20.007,18.291,34.666,42.326,44.169,67.575
				c9.782,25.994,13.187,54.386,6.545,81.552c-9.557,39.088-37.882,70.157-70.971,91.562
				c-34.863,22.551-76.059,35.769-117.273,39.77c-37.344,3.624-75.314-1.027-108.74-18.789
				c-27.113-14.408-48.438-37.163-61.255-65.025C-0.13,243.128,10.907,174.604,38.876,121.418
				c29.339-55.79,82.47-100.476,146.864-106.193C189.795,14.866,189.863,8.533,185.741,8.843L185.741,8.843z"/>
		</g>
	</g>
</g>
<g id="Layer_5">
	<g>
		<g>
			<path fill="#F05029" d="M366.19,69.846c-35.853-30.145-81.026-47.324-127.202-53.177c-45.911-5.819-94.903,0.647-135.037,24.678
				c-34.369,20.579-61.418,54.601-78.636,90.331c-17,35.278-25.3,75.396-20.345,114.444c4.985,39.285,24.226,75.116,54.851,100.345
				c29.566,24.357,66.567,36.193,104.233,40.247c73.977,7.962,162.392-14.201,207.934-77.094
				c24.168-33.375,30.389-75.617,20.648-115.238c-10.537-42.86-37.76-80.713-69.511-110.573
				c-35.93-33.788-80.95-59.811-130.117-67.208c-3.335-0.501-4.77,4.594-1.406,5.101c41.984,6.315,81.842,29.635,114.016,56.4
				c34.257,28.498,63.547,65.595,77.274,108.414c12.802,39.934,8.126,82.909-15.775,117.714
				c-21.658,31.539-56.456,52.185-92.232,63.901c-37.665,12.335-78.689,15.787-117.927,10.354
				c-38.387-5.316-75.047-19.956-102.856-47.555c-59.164-58.715-50.298-152.494-8.967-218.493
				c22.445-35.842,55.014-65.39,95.358-79.212c45.31-15.524,95.807-13.331,141.314,0.121c28.809,8.516,56.473,22.013,79.761,41.124
				C364.788,77.114,369.435,72.573,366.19,69.846L366.19,69.846z"/>
		</g>
	</g>
</g>
</svg>
